<svg width="1920" height="851" viewBox="0 0 1920 851" fill="none" xmlns="http://www.w3.org/2000/svg">
<g clip-path="url(#clip0_5773_30465)">
<path d="M3812 195C3812 281.147 3761.82 366.451 3664.33 446.04C3566.83 525.63 3423.93 597.947 3243.79 658.862C3063.64 719.777 2849.78 768.098 2614.41 801.065C2379.03 834.032 2126.76 851 1872 851C1617.24 851 1364.97 834.032 1129.59 801.065C894.222 768.098 680.358 719.777 500.213 658.862C320.067 597.947 177.168 525.63 79.6736 446.04C-17.8205 366.451 -68 281.147 -68 195L1872 195H3812Z" fill="#E2E8F0"/>
</g>
<rect width="1920" height="207" fill="#E2E8F0"/>
<defs>
<clipPath id="clip0_5773_30465">
<rect width="1920" height="656" fill="white" transform="translate(0 195)"/>
</clipPath>
</defs>
</svg>
